# xmcd
#
# Track frame offsets:
# 150
# 12510
# 29295
# 40076
# 54167
# 67124
# 77786
# 93902
# 109568
# 115917
# 124150
# 135939
# 149561
# 158024
# 178853
# 195749
# 209635
# 224221
# 239370
#
# Disc length: 3375 seconds
#
#
# Revision: 0
# Processed by: cddbd v1.5.1PL0 Copyright (c) Steve Scherf et al.
# Submitted via: FreeRIP 2.60 
#
DISCID=170d2d13
DTITLE=Vulvinia and Jambonstar - devenir hormonal
DYEAR=2004
DGENRE=Avantgarde
TTITLE0=Cosmos libre
TTITLE1=Phtysie
TTITLE2=Opulence
TTITLE3=Prolix
TTITLE4=Aloha from Corsica
TTITLE5=Comment devenir vierge
TTITLE6=à mon chien
TTITLE7=Fuck the horse
TTITLE8=Quand j'avais 5 ans, jamais sans ma fille
TTITLE9=Catherine deneuve
TTITLE10=Le jazz du canard (rdv tonight)
TTITLE11=human violin
TTITLE12=Carmen vs Periodurah
TTITLE13=Jessica Renard chante pour tanaka
TTITLE14=Chanel number 5
TTITLE15=Boire, dit elle
TTITLE16=Benzin und tropf
TTITLE17=Crist roi
TTITLE18=Hit from jah
EXTD=byteburger records
EXTT0=
EXTT1=
EXTT2=
EXTT3=
EXTT4=
EXTT5=
EXTT6=
EXTT7=
EXTT8=
EXTT9=
EXTT10=
EXTT11=
EXTT12=
EXTT13=
EXTT14=
EXTT15=
EXTT16=
EXTT17=
EXTT18=
PLAYORDER=
